<?xml version="1.0" encoding="utf-8"?>
<!-- Generator: Adobe Illustrator 27.7.0, SVG Export Plug-In . SVG Version: 6.00 Build 0)  -->
<svg version="1.1" id="Layer_1" xmlns="http://www.w3.org/2000/svg" xmlns:xlink="http://www.w3.org/1999/xlink" x="0px" y="0px"
	 viewBox="0 0 345 89.8" style="enable-background:new 0 0 345 89.8;" xml:space="preserve">
<style type="text/css">
	.st0{fill:#FFFFFF;}
	.st1{fill:#FF7C00;}
	.st2{fill:#E2E2E2;}
	.st3{fill:#FF910D;}
</style>
<g id="Layer_2_00000147215611324730104910000013145831866205136281_">
	<g id="Layer_1-2">
		<g id="code_html5">
			<path class="st0" d="M131.1,58.7c-3.7,3.8-8.9,6-14.2,6c-11.1,0-20.1-9-20-20.1c0-11.1,9-20.1,20.1-20c5.3,0,10.3,2.1,14.1,5.8
				l-5.3,5.4c-4.9-4.9-12.8-4.9-17.7,0s-4.9,12.8,0,17.7c2.3,2.3,5.5,3.7,8.9,3.7c3.4,0.1,6.6-1.3,8.9-3.7L131.1,58.7z"/>
			<path class="st0" d="M172.5,64.7h-7.1V44.6c0-7-5.3-12.5-11.8-12.5s-11.7,5.4-11.8,12.4v20.2h-7.1v-60h7.1V29
				c3.3-2.8,7.4-4.4,11.8-4.4c10.4,0,18.8,8.9,18.9,20V64.7z"/>
			<path class="st0" d="M216,44.7c-0.1,11-9.2,19.8-20.1,19.7c-11-0.1-19.8-9.2-19.7-20.1c0.1-11,9.2-19.8,20.1-19.7
				c6.5,0.1,12.5,3.3,16.1,8.6l-22.4,22.5c1.8,0.9,3.8,1.4,5.8,1.5c6.9,0.1,12.5-5.3,12.6-12.2c0-0.1,0-0.1,0-0.2H216z M184.8,50.3
				l16.9-16.9c-1.8-0.9-3.8-1.4-5.8-1.4c-6.8,0-12.4,5.6-12.4,12.4c0,0.1,0,0.2,0,0.3C183.5,46.6,184,48.5,184.8,50.3z"/>
			<path class="st0" d="M257.5,44.7c-0.1,11-9.2,19.8-20.1,19.7c-11-0.1-19.8-9.2-19.7-20.1c0.1-11,9.2-19.8,20.1-19.7
				c6.5,0.1,12.5,3.3,16.1,8.6l-22.4,22.5c1.8,0.9,3.8,1.4,5.8,1.5c6.9,0.1,12.5-5.4,12.6-12.2c0,0,0-0.1,0-0.1H257.5z M226.2,50.3
				l16.9-16.9c-1.8-0.9-3.8-1.4-5.8-1.4c-6.8,0-12.4,5.6-12.3,12.5c0,0.1,0,0.1,0,0.2C225,46.6,225.4,48.5,226.2,50.3z"/>
			<path class="st0" d="M261,64.7V25h7.5v4.1c3.6-2.9,8-4.4,12.5-4.4v7.5c-6.9,0-12.5,5.6-12.5,12.4c0,0,0,0,0,0.1v20L261,64.7z"/>
			<path class="st0" d="M281.6,44.7c0-11,9-20,20-20s20,9,20,20s-9,20-20,20l0,0c-4.5,0-8.9-1.5-12.4-4.3V84h-7.5L281.6,44.7z
				 M314.2,44.7c0-6.9-5.6-12.5-12.5-12.5s-12.5,5.6-12.5,12.5l0,0v0.1c0,6.9,5.6,12.5,12.5,12.5S314.2,51.6,314.2,44.7L314.2,44.7z
				"/>
			<path class="st1" d="M336.1,25.2h7.5v38.7c0,11-9,20-20,20v-7.5c6.9,0,12.5-5.5,12.5-12.4c0,0,0-0.1,0-0.1V25.2z M339.9,19
				c-2.8,0-5.1-2.3-5.1-5.1s2.3-5.1,5.1-5.1c2.8,0,5.1,2.3,5.1,5.1c0,0,0,0,0,0C345,16.7,342.7,19,339.9,19L339.9,19z"/>
			<polygon class="st1" points="79.4,0 39.7,0 39.7,0 0,0 7.4,80.7 39.7,89.8 39.7,89.8 39.7,89.8 39.7,89.8 39.7,89.8 71.9,80.7 
							"/>
			<path class="st2" d="M44.8,26.2c4.2-0.1,8.4,1.2,11.8,3.7c0.3,0.2,0.7,0.5,1,0.8c0.5,0.4,0.7,1,0.5,1.6c-0.2,0.6-0.7,1.1-1.3,1.2
				c-1.9,0.6-3.8,1.1-5.6,1.8c-4.5,1.9-8.5,4.8-11.7,8.5c-4.4,5.1-10.5,8.5-17.1,9.7c-0.4,0.1-0.7,0.1-1.1,0.2
				c-0.7,0.1-1.4-0.4-1.6-1.1c-0.7-2.2-0.9-4.5-0.6-6.8c0.8-4.8,3.3-9.2,7.2-12.2c4.3-3.6,9.4-6,14.9-7c0.5-0.1,1.1-0.2,1.6-0.2
				C43.6,26.3,44.3,26.3,44.8,26.2z"/>
			<path class="st2" d="M36.8,65.3c-4.7-0.1-8.6-1.1-12-3.8c-0.3-0.2-0.6-0.5-0.9-0.7c-0.6-0.4-0.8-1.1-0.6-1.8
				c0.2-0.6,0.7-1.1,1.4-1.2c1.8-0.6,3.7-1.1,5.5-1.9c4.6-2,8.6-5.1,11.8-8.9c4.5-5.4,10.8-8.9,17.7-10.1c0.9-0.3,1.8,0.2,2.1,1.1
				c0,0.1,0.1,0.2,0.1,0.3c1.3,4.6,0.6,9.6-1.9,13.7c-2.2,3.6-5.2,6.5-8.8,8.7c-3.5,2.2-7.4,3.7-11.5,4.4
				C38.5,65.2,37.4,65.3,36.8,65.3z"/>
			<polygon class="st3" points="39.9,7.6 39.9,84 39.9,84 66.1,76.6 72.6,7.6 			"/>
			<path class="st0" d="M56.5,30.8c-0.3-0.3-0.7-0.5-1-0.8c-3.6-2.5-7.9-3.8-12.3-3.7c-0.5,0-1.3,0.1-2.1,0.1c-0.4,0-0.7,0.1-1,0.2
				c-0.3,0,0.8,0.1-0.2,0.2v16.1c3.9-3.2,6.3-5.8,10.6-7.5c1.9-0.7,3.5-1.2,5.5-1.8c0.6-0.1,1-0.6,1.2-1.1
				C57.3,31.8,57,31.2,56.5,30.8z"/>
			<path class="st0" d="M61,39.5c-0.1-0.9-0.9-1.5-1.8-1.4c-0.1,0-0.2,0-0.3,0.1c-6.8,1.1-13,4.5-17.6,9.7c-0.5,0.5-0.5,1.1-1.4,1.6
				v15.7c3.7-0.7,7.3-2,10.5-4.1c3.6-2,6.6-4.9,8.7-8.3C61.7,48.8,62.3,44,61,39.5z"/>
		</g>
	</g>
</g>
</svg>
